<?xml version="1.0" encoding="UTF-8"?>
<svg xmlns="http://www.w3.org/2000/svg" xmlns:xlink="http://www.w3.org/1999/xlink" width="577px" height="512px" viewBox="0 0 576 512" version="1.1">
<g id="surface1">
<path style=" stroke:none;fill-rule:nonzero;fill:rgb(0%,0%,0%);fill-opacity:1;" d="M 9.398438 86.601562 C -3.101562 74.101562 -3.101562 53.898438 9.398438 41.398438 C 21.898438 28.898438 42.199219 28.898438 54.699219 41.398438 L 246.699219 233.398438 C 259.199219 245.898438 259.199219 266.199219 246.699219 278.699219 L 54.699219 470.699219 C 42.199219 483.199219 21.898438 483.199219 9.398438 470.699219 C -3.101562 458.199219 -3.101562 437.898438 9.398438 425.398438 L 178.699219 256 Z M 256 416 L 544 416 C 561.699219 416 576 430.300781 576 448 C 576 465.699219 561.699219 480 544 480 L 256 480 C 238.300781 480 224 465.699219 224 448 C 224 430.300781 238.300781 416 256 416 Z M 256 416 "/>
</g>
</svg>
